<?xml version="1.0" encoding="utf-8"?>
<!-- Generator: Adobe Illustrator 21.0.2, SVG Export Plug-In . SVG Version: 6.00 Build 0)  -->
<svg version="1.1" id="Layer_1" xmlns="http://www.w3.org/2000/svg" xmlns:xlink="http://www.w3.org/1999/xlink" x="0px" y="0px"
	 viewBox="0 0 326.5 361.1" enable-background="new 0 0 326.5 361.1" xml:space="preserve">
<g id="face_2_">
	<circle id="circle_3_" fill="#32AD7A" stroke="#238B61" stroke-width="12" stroke-miterlimit="10" cx="166.5" cy="158.4" r="126"/>
	<path id="mouth_2_" fill="none" stroke="#238B61" stroke-width="6" stroke-linecap="round" stroke-miterlimit="10" d="M219.5,230.1
		c3.7-1.8-38.1,9.8-97-12.9"/>
	<path id="eye--right" fill="none" stroke="#414042" stroke-width="6" stroke-linecap="round" stroke-miterlimit="10" d="
		M263.8,181.8c0,0-8.3-13.4-20.7-5.2"/>
	<path id="eye--left_4_" fill="none" stroke="#414042" stroke-width="6" stroke-linecap="round" stroke-miterlimit="10" d="
		M84,158.3c0,0,16.2-10,25.3,1.9"/>
</g>
<circle fill="#32AD7A" cx="284.1" cy="55.5" r="7.5"/>
<path fill="#32AD7A" d="M10.4,161.6C4.7,161.6,0,166.3,0,172s4.7,10.4,10.4,10.4s10.4-4.7,10.4-10.4S16.1,161.6,10.4,161.6z"/>
<g>
	<path fill="#32AD7A" d="M239.6,280.9c-9.1,0-16.5,7.4-16.5,16.5s7.4,16.5,16.5,16.5s16.5-7.4,16.5-16.5S248.7,280.9,239.6,280.9z"
		/>
	<g>
		<path fill="#58595B" d="M293.2,63.4c-1.3,1.5-3,2.7-5,3.4c19.4,25.6,30.9,57.5,30.9,92.1c0,51.2-25.3,96.6-64,124.3
			c1.3,1.5,2.5,3.1,3.4,5c40.3-28.8,66.7-76.1,66.7-129.3C325.1,123.1,313.2,90,293.2,63.4z"/>
		<path fill="#58595B" d="M10.4,157.1c1,0,2,0.1,3,0.3C14.2,73.8,82.4,6,166.3,6c41.7,0,79.6,16.8,107.2,44c0.9-1.8,2.3-3.4,4-4.5
			C248.8,17.4,209.5,0,166.3,0C79.1,0,8.2,70.5,7.4,157.4C8.4,157.2,9.4,157.1,10.4,157.1z"/>
		<path fill="#58595B" d="M219.2,302.3c-16.5,6.1-34.4,9.5-53,9.5c-75.1,0-137.7-54.4-150.5-125.9c-1.7,0.7-3.5,1-5.4,1
			c-0.2,0-0.4,0-0.5,0c13.3,74.3,78.3,130.9,156.4,130.9c19.4,0,38-3.5,55.2-9.9C220.5,306.1,219.7,304.3,219.2,302.3z"/>
	</g>
</g>
<radialGradient id="SVGID_1_" cx="5.2345" cy="353.4097" r="29.428" gradientTransform="matrix(1.8997 0 0 0.2 156.3156 282.7277)" gradientUnits="userSpaceOnUse">
	<stop  offset="0" style="stop-color:#58595B"/>
	<stop  offset="1" style="stop-color:#F1F2F2"/>
</radialGradient>
<ellipse opacity="0.5" fill="url(#SVGID_1_)" cx="166.3" cy="353.4" rx="77.7" ry="7.7"/>
<g>
</g>
<g>
</g>
<g>
</g>
<g>
</g>
<g>
</g>
<g>
</g>
</svg>
