<?xml version="1.0" encoding="utf-8"?>
<!-- Generator: Adobe Illustrator 21.0.2, SVG Export Plug-In . SVG Version: 6.00 Build 0)  -->
<svg version="1.1" id="Layer_1" xmlns="http://www.w3.org/2000/svg" xmlns:xlink="http://www.w3.org/1999/xlink" x="0px" y="0px"
	 viewBox="0 0 71.9 36.8" style="enable-background:new 0 0 71.9 36.8;" xml:space="preserve">
<g>
	<path d="M9.7,18.4L21.1,7c1.6-1.6,1.6-4.1,0-5.7c-1.6-1.6-4.1-1.6-5.7,0L1.2,15.6c-1.6,1.6-1.6,4.1,0,5.7l14.3,14.3
		c0.8,0.8,1.8,1.2,2.8,1.2s2-0.4,2.8-1.2c1.6-1.6,1.6-4.1,0-5.7L9.7,18.4z"/>
	<path d="M62.2,18.4L50.8,29.8c-1.6,1.6-1.6,4.1,0,5.7c1.6,1.6,4.1,1.6,5.7,0l14.2-14.3c1.6-1.6,1.6-4.1,0-5.7L56.4,1.2
		C55.6,0.4,54.6,0,53.6,0s-2,0.4-2.8,1.2c-1.6,1.6-1.6,4.1,0,5.7L62.2,18.4z"/>
	<path d="M31.6,34c-0.5,0-0.9-0.1-1.4-0.3c-2.1-0.8-3.1-3.1-2.3-5.2l8.8-23.1c0.8-2.1,3.1-3.1,5.2-2.3C44,3.9,45,6.2,44.2,8.3
		l-8.8,23.1C34.7,33,33.2,34,31.6,34z"/>
</g>
</svg>
